<?xml version="1.0" standalone="no"?><!DOCTYPE svg PUBLIC "-//W3C//DTD SVG 1.1//EN" "http://www.w3.org/Graphics/SVG/1.1/DTD/svg11.dtd"><svg t="1751018029203" class="icon" viewBox="0 0 1024 1024" version="1.1" xmlns="http://www.w3.org/2000/svg" p-id="931" xmlns:xlink="http://www.w3.org/1999/xlink" width="200" height="200"><path d="M639.723937 242.799118c21.112967 0 38.00334 16.890373 38.00334 38.00334 0 21.112967-16.890373 40.114637-38.00334 40.114636h-358.920435C259.690536 320.917094 242.800162 301.915424 242.800162 280.802458S259.690536 242.799118 280.803502 242.799118h358.920435z m101.34224 230.131337c21.112967 0 40.114637 16.890373 40.114637 40.114637 0 21.112967-19.00167 38.00334-40.114637 38.00334H280.803502A38.00334 38.00334 0 0 1 242.800162 513.045092c0-23.224263 16.890373-40.114637 38.00334-40.114637h460.262675zM536.2704 703.061793a42.225933 42.225933 0 0 1 40.114637 40.114636C576.385037 764.289396 557.383367 781.179769 536.2704 781.179769H280.803502A38.00334 38.00334 0 0 1 242.800162 743.176429c0-21.112967 16.890373-40.114637 38.00334-40.114636H536.2704z" p-id="932"></path><path d="M819.184154 0c84.451867 0 154.124657 69.67279 154.124658 154.124657v715.729573c0 84.451867-69.67279 154.124657-154.124658 154.124657H204.796822A154.124657 154.124657 0 0 1 50.672165 869.85423V154.124657C50.672165 69.67279 120.344955 0 204.796822 0h614.387332z m0 76.00668H204.796822a80.229274 80.229274 0 0 0-78.117977 78.117977v715.729573c0 42.225933 35.892043 78.117977 78.117977 78.117977h614.387332C861.410088 947.972207 895.190835 912.080163 895.190835 869.85423V154.124657A78.117977 78.117977 0 0 0 819.184154 76.00668z" p-id="933"></path></svg>